HIERARCHY
ROOT Hips
{
	OFFSET 0.000000 83.214638 0.000000
	CHANNELS 6 Xposition Yposition Zposition Xrotation Yrotation Zrotation
	JOINT Pelvis
	{
		OFFSET 0.000000 0.000000 0.000000
		CHANNELS 3 Xrotation Yrotation Zrotation
		JOINT LeftUpLeg
		{
			OFFSET 8.479700 -4.795502 -0.379100
			CHANNELS 3 Xrotation Yrotation Zrotation
			JOINT LeftLeg
			{
				OFFSET 0.024144 -32.555107 0.112900
				CHANNELS 3 Xrotation Yrotation Zrotation
				JOINT LeftFoot
				{
					OFFSET -0.024144 -32.638630 -3.012600
					CHANNELS 3 Xrotation Yrotation Zrotation
					JOINT LeftToeBase
					{
						OFFSET 0.970200 -13.225400 11.864200
						CHANNELS 3 Xrotation Yrotation Zrotation
						End Site
						{
							OFFSET 0.000000 12.319262 0.000000
						}
					}
					JOINT LFootTongue
					{
						OFFSET 1.142400 -1.059800 6.665200
						CHANNELS 3 Xrotation Yrotation Zrotation
						End Site
						{
							OFFSET 0.000000 12.319262 0.000000
						}
					}
				}
				JOINT LeftPantLeg
				{
					OFFSET 0.918482 -16.533964 -2.284700
					CHANNELS 3 Xrotation Yrotation Zrotation
					End Site
					{
						OFFSET 0.350399 24.744368 0.000000
					}
				}
			}
		}
		JOINT RightUpLeg
		{
			OFFSET -8.479700 -4.795502 -0.379100
			CHANNELS 3 Xrotation Yrotation Zrotation
			JOINT RightLeg
			{
				OFFSET -0.023144 -32.555092 0.112900
				CHANNELS 3 Xrotation Yrotation Zrotation
				JOINT RightFoot
				{
					OFFSET 0.023144 -32.638641 -3.012700
					CHANNELS 3 Xrotation Yrotation Zrotation
					JOINT RightToeBase
					{
						OFFSET -0.970200 -13.225400 11.864200
						CHANNELS 3 Xrotation Yrotation Zrotation
						End Site
						{
							OFFSET 0.000000 12.319244 0.000000
						}
					}
					JOINT RFootTongue
					{
						OFFSET -1.142200 -1.059800 6.665200
						CHANNELS 3 Xrotation Yrotation Zrotation
						End Site
						{
							OFFSET 0.000000 12.319243 0.000000
						}
					}
				}
				JOINT RightPantLeg
				{
					OFFSET -0.919482 -16.533978 -2.284800
					CHANNELS 3 Xrotation Yrotation Zrotation
					End Site
					{
						OFFSET -0.350400 24.744419 0.000000
					}
				}
			}
		}
	}
	JOINT Spine
	{
		OFFSET 0.000000 7.722000 1.166200
		CHANNELS 3 Xrotation Yrotation Zrotation
		JOINT Spine1
		{
			OFFSET 0.000000 12.024101 0.248800
			CHANNELS 3 Xrotation Yrotation Zrotation
			JOINT Spine2
			{
				OFFSET 0.000000 11.502998 -0.491200
				CHANNELS 3 Xrotation Yrotation Zrotation
				JOINT Neck
				{
					OFFSET 0.000000 18.430702 -3.123100
					CHANNELS 3 Xrotation Yrotation Zrotation
					JOINT Head
					{
						OFFSET 0.000000 9.051102 1.034000
						CHANNELS 3 Xrotation Yrotation Zrotation
						JOINT HairB
						{
							OFFSET 0.208400 24.786102 24.822300
							CHANNELS 3 Xrotation Yrotation Zrotation
							End Site
							{
								OFFSET 0.000000 32.263779 0.000000
							}
						}
						JOINT HairA
						{
							OFFSET -7.081100 24.428299 23.196600
							CHANNELS 3 Xrotation Yrotation Zrotation
							End Site
							{
								OFFSET 0.000000 32.263779 0.000000
							}
						}
						JOINT Hat
						{
							OFFSET 16.728800 15.048294 -15.439601
							CHANNELS 3 Xrotation Yrotation Zrotation
							End Site
							{
								OFFSET 0.000000 32.263779 0.000000
							}
						}
					}
				}
				JOINT LeftShoulder
				{
					OFFSET 6.197800 13.665199 -4.064700
					CHANNELS 3 Xrotation Yrotation Zrotation
					JOINT LeftArm
					{
						OFFSET 7.778100 -0.187103 -1.709300
						CHANNELS 3 Xrotation Yrotation Zrotation
						JOINT LeftForeArm
						{
							OFFSET 22.049376 0.000000 0.000000
							CHANNELS 3 Xrotation Yrotation Zrotation
							JOINT LeftHand
							{
								OFFSET 23.009392 0.000000 0.000000
								CHANNELS 3 Xrotation Yrotation Zrotation
								JOINT LeftHandThumb1
								{
									OFFSET 3.507191 -2.063065 3.133727
									CHANNELS 3 Xrotation Yrotation Zrotation
									JOINT LeftHandThumb2
									{
										OFFSET 3.101337 -1.790558 1.790558
										CHANNELS 3 Xrotation Yrotation Zrotation
										JOINT LeftHandThumb3
										{
											OFFSET 3.058640 -1.765907 1.765906
											CHANNELS 3 Xrotation Yrotation Zrotation
											End Site
											{
												OFFSET -0.415260 3.926476 -0.049563
											}
										}
									}
								}
								JOINT LeftHandIndex1
								{
									OFFSET 11.334419 -0.901459 3.706815
									CHANNELS 3 Xrotation Yrotation Zrotation
									JOINT LeftHandIndex2
									{
										OFFSET 3.283112 0.000000 0.000000
										CHANNELS 3 Xrotation Yrotation Zrotation
										JOINT LeftHandIndex3
										{
											OFFSET 3.323853 0.000000 0.000000
											CHANNELS 3 Xrotation Yrotation Zrotation
											End Site
											{
												OFFSET -1.135597 3.097809 0.402452
											}
										}
									}
								}
								JOINT LeftHandMiddle1
								{
									OFFSET 11.335861 0.000000 0.000000
									CHANNELS 3 Xrotation Yrotation Zrotation
									JOINT LeftHandMiddle2
									{
										OFFSET 3.410492 0.000000 0.000000
										CHANNELS 3 Xrotation Yrotation Zrotation
										JOINT LeftHandMiddle3
										{
											OFFSET 3.312172 0.000000 0.000000
											CHANNELS 3 Xrotation Yrotation Zrotation
											End Site
											{
												OFFSET -1.150200 3.080154 0.400270
											}
										}
									}
								}
								JOINT LeftHandRing1
								{
									OFFSET 11.514786 -0.013176 -3.003090
									CHANNELS 3 Xrotation Yrotation Zrotation
									JOINT LeftHandRing2
									{
										OFFSET 3.053307 0.000000 0.000000
										CHANNELS 3 Xrotation Yrotation Zrotation
										JOINT LeftHandRing3
										{
											OFFSET 3.295807 0.000000 0.000000
											CHANNELS 3 Xrotation Yrotation Zrotation
											End Site
											{
												OFFSET -1.281006 3.013344 0.375733
											}
										}
									}
								}
								JOINT LeftHandPinky1
								{
									OFFSET 10.518692 -0.960396 -5.730441
									CHANNELS 3 Xrotation Yrotation Zrotation
									JOINT LeftHandPinky2
									{
										OFFSET 2.861649 0.000000 0.000000
										CHANNELS 3 Xrotation Yrotation Zrotation
										JOINT LeftHandPinky3
										{
											OFFSET 2.863380 0.000000 0.000000
											CHANNELS 3 Xrotation Yrotation Zrotation
											End Site
											{
												OFFSET -0.843597 2.711159 0.369971
											}
										}
									}
								}
							}
							JOINT LSleeve
							{
								OFFSET 6.676277 -0.344902 -1.011730
								CHANNELS 3 Xrotation Yrotation Zrotation
								End Site
								{
									OFFSET 0.000000 14.885353 0.000000
								}
							}
						}
					}
				}
				JOINT RightShoulder
				{
					OFFSET -6.197800 13.665199 -4.064700
					CHANNELS 3 Xrotation Yrotation Zrotation
					JOINT RightArm
					{
						OFFSET -7.778100 -0.187103 -1.709300
						CHANNELS 3 Xrotation Yrotation Zrotation
						JOINT RightForeArm
						{
							OFFSET -22.049376 0.000000 0.000000
							CHANNELS 3 Xrotation Yrotation Zrotation
							JOINT RightHand
							{
								OFFSET -23.009392 0.000000 0.000000
								CHANNELS 3 Xrotation Yrotation Zrotation
								JOINT RightHandThumb1
								{
									OFFSET -3.507191 -2.063065 3.133727
									CHANNELS 3 Xrotation Yrotation Zrotation
									JOINT RightHandThumb2
									{
										OFFSET -3.101337 -1.790558 1.790558
										CHANNELS 3 Xrotation Yrotation Zrotation
										JOINT RightHandThumb3
										{
											OFFSET -3.058640 -1.765907 1.765906
											CHANNELS 3 Xrotation Yrotation Zrotation
											End Site
											{
												OFFSET 0.415260 3.926476 -0.049563
											}
										}
									}
								}
								JOINT RightHandIndex1
								{
									OFFSET -11.334419 -0.901459 3.706815
									CHANNELS 3 Xrotation Yrotation Zrotation
									JOINT RightHandIndex2
									{
										OFFSET -3.283112 0.000000 0.000000
										CHANNELS 3 Xrotation Yrotation Zrotation
										JOINT RightHandIndex3
										{
											OFFSET -3.323853 0.000000 0.000000
											CHANNELS 3 Xrotation Yrotation Zrotation
											End Site
											{
												OFFSET 1.135597 3.097809 0.402452
											}
										}
									}
								}
								JOINT RightHandMiddle1
								{
									OFFSET -11.335861 0.000000 0.000000
									CHANNELS 3 Xrotation Yrotation Zrotation
									JOINT RightHandMiddle2
									{
										OFFSET -3.410492 0.000000 0.000000
										CHANNELS 3 Xrotation Yrotation Zrotation
										JOINT RightHandMiddle3
										{
											OFFSET -3.312172 0.000000 0.000000
											CHANNELS 3 Xrotation Yrotation Zrotation
											End Site
											{
												OFFSET 1.150200 3.080154 0.400270
											}
										}
									}
								}
								JOINT RightHandRing1
								{
									OFFSET -11.514786 -0.013176 -3.003090
									CHANNELS 3 Xrotation Yrotation Zrotation
									JOINT RightHandRing2
									{
										OFFSET -3.053307 0.000000 0.000000
										CHANNELS 3 Xrotation Yrotation Zrotation
										JOINT RightHandRing3
										{
											OFFSET -3.295807 0.000000 0.000000
											CHANNELS 3 Xrotation Yrotation Zrotation
											End Site
											{
												OFFSET 1.281006 3.013344 0.375733
											}
										}
									}
								}
								JOINT RightHandPinky1
								{
									OFFSET -10.518692 -0.960396 -5.730441
									CHANNELS 3 Xrotation Yrotation Zrotation
									JOINT RightHandPinky2
									{
										OFFSET -2.861649 0.000000 0.000000
										CHANNELS 3 Xrotation Yrotation Zrotation
										JOINT RightHandPinky3
										{
											OFFSET -2.863380 0.000000 0.000000
											CHANNELS 3 Xrotation Yrotation Zrotation
											End Site
											{
												OFFSET 0.843597 2.711159 0.369971
											}
										}
									}
								}
							}
							JOINT RSleeve
							{
								OFFSET -6.676277 -0.344902 -1.011730
								CHANNELS 3 Xrotation Yrotation Zrotation
								End Site
								{
									OFFSET 0.000000 14.885353 0.000000
								}
							}
						}
					}
				}
				JOINT Backpack
				{
					OFFSET 0.000000 -2.471497 36.677502
					CHANNELS 3 Xrotation Yrotation Zrotation
					End Site
					{
						OFFSET 0.000000 20.427315 0.000000
					}
				}
				JOINT Hood
				{
					OFFSET 0.000000 18.754097 -10.431000
					CHANNELS 3 Xrotation Yrotation Zrotation
					JOINT Hood1
					{
						OFFSET 0.000000 -5.011002 -7.685901
						CHANNELS 3 Xrotation Yrotation Zrotation
						End Site
						{
							OFFSET 0.000000 9.175140 0.000000
						}
					}
				}
				JOINT LHoodieString
				{
					OFFSET 5.250500 16.397697 3.089900
					CHANNELS 3 Xrotation Yrotation Zrotation
					JOINT LHoodieString1
					{
						OFFSET 0.257700 -6.364304 3.694600
						CHANNELS 3 Xrotation Yrotation Zrotation
						JOINT LHoodieString2
						{
							OFFSET 0.000000 -9.643799 2.679100
							CHANNELS 3 Xrotation Yrotation Zrotation
							End Site
							{
								OFFSET 0.000000 10.009018 0.000000
							}
						}
					}
				}
				JOINT RHoodieString
				{
					OFFSET -5.250500 16.397697 3.089900
					CHANNELS 3 Xrotation Yrotation Zrotation
					JOINT RHoodieString1
					{
						OFFSET -0.257700 -6.364304 3.694600
						CHANNELS 3 Xrotation Yrotation Zrotation
						JOINT RHoodieString2
						{
							OFFSET 0.000000 -9.643799 2.679100
							CHANNELS 3 Xrotation Yrotation Zrotation
							End Site
							{
								OFFSET 0.000000 10.009018 0.000000
							}
						}
					}
				}
			}
			JOINT LBackpack_Strap
			{
				OFFSET 15.223200 -7.719803 -6.610900
				CHANNELS 3 Xrotation Yrotation Zrotation
				End Site
				{
					OFFSET 0.000000 16.040596 0.000000
				}
			}
			JOINT RBackpack_Strap
			{
				OFFSET -15.223000 -7.719803 -6.610900
				CHANNELS 3 Xrotation Yrotation Zrotation
				End Site
				{
					OFFSET 0.000000 16.040596 0.000000
				}
			}
		}
	}
	JOINT BoyFacialAnim_Joint
	{
		OFFSET 1.000000 -82.208099 -1.550900
		CHANNELS 3 Xrotation Yrotation Zrotation
		End Site
		{
			OFFSET 0.000000 30.012791 0.000000
		}
	}
}
MOTION
Frames: 4
Frame Time: 0.033333
-205.422775 56.927475 80.859169 19.782554 -41.071929 8.169234 -0.000001 -0.000002 -0.000000 -17.414257 -3.349501 4.308000 81.830031 -0.627105 -2.654698 11.297713 -9.847806 -9.250071 0.000000 0.000001 -0.000001 0.000000 0.000001 -0.000000 -0.000000 -0.000000 -0.000000 -87.275146 7.993781 -8.619805 53.807551 0.706745 2.030869 18.884488 -6.600303 10.040767 -0.000000 -0.000000 -0.000000 -0.000000 -0.000000 -0.000000 -0.000002 -0.000002 -0.000002 9.996051 -3.999535 5.324857 20.318981 -6.573097 10.913925 20.318979 -6.573085 10.913921 5.649284 -1.606154 0.685797 -21.857150 -15.763972 3.010026 0.000003 0.000000 -0.000000 0.000003 0.000000 -0.000000 0.000003 0.000000 -0.000000 -0.379876 3.079843 14.418131 -32.087730 -23.711509 14.438590 -0.019743 -75.521449 -0.045901 5.156989 -10.607297 34.718914 -15.077614 -20.844341 -2.432416 6.252096 2.137249 0.027730 -0.000000 0.000006 -0.000001 3.314606 -15.101693 -0.856136 0.074312 0.778802 -17.832681 -0.000001 0.000002 -0.000001 1.362918 -2.274558 6.617356 -0.634149 -1.842527 -29.990046 0.000003 -0.000000 0.000004 0.922195 5.924271 -7.552181 -0.248011 -2.074535 -18.493275 -0.000001 -0.000002 -0.000001 -5.102327 25.360100 -19.076519 -1.217243 -6.715296 -35.009753 0.000000 0.000001 -0.000000 0.000001 -0.000000 -0.000001 0.267847 -6.085588 -1.239358 -2.812012 -14.536193 36.702848 0.021456 62.188592 -0.028101 9.365388 -7.588145 -14.356451 -13.753265 3.208068 -2.876239 -1.370997 -0.266094 -2.297771 0.000002 0.000001 -0.000004 -10.703149 5.445434 -1.039007 -0.231382 -5.211622 19.329422 -0.000000 -0.000001 -0.000002 -4.928688 -6.891763 -3.857127 -0.141575 -2.724173 28.789138 0.000002 -0.000002 -0.000002 -2.839379 -9.931197 8.103347 0.197377 -1.487819 28.000289 0.000002 -0.000005 -0.000000 -1.314946 -20.096114 11.872549 0.512820 1.199065 32.884981 -0.000001 0.000002 0.000002 -0.000001 -0.000002 -0.000002 0.000002 0.000001 -0.000000 0.000002 0.000001 -0.000000 0.000002 0.000001 -0.000000 0.000002 0.000001 -0.000000 0.000002 0.000001 -0.000000 -0.000000 0.000001 -0.000000 0.000002 0.000001 -0.000000 0.000002 0.000001 -0.000000 -0.000000 0.000001 -0.000000 -0.000000 0.000001 -0.000002 -0.000000 0.000001 -0.000002 -0.000001 -0.000002 -0.000000 
-212.878128 55.554031 86.216904 23.100190 -42.529792 12.588139 0.000002 0.000000 -0.000000 -20.694887 -3.619771 5.271737 84.197689 -0.712332 -2.710456 19.911596 -10.155114 -7.784893 -0.000001 0.000002 0.000003 -0.000001 0.000002 0.000003 -0.000000 -0.000000 0.000001 -92.506313 10.036453 -6.490747 58.981279 1.428801 2.146588 17.339839 -2.978849 12.995347 -0.000000 0.000002 0.000000 -0.000000 0.000002 0.000000 -0.000001 -0.000003 0.000000 10.455696 -4.123224 5.070249 21.201228 -6.730818 10.105892 21.201218 -6.730811 10.105875 0.866642 -2.008271 1.676414 -30.920762 -17.155948 3.495449 0.000002 -0.000000 -0.000001 0.000002 -0.000000 -0.000001 0.000002 -0.000000 -0.000001 0.122980 1.763320 8.865203 -32.863503 -21.181149 0.690943 0.005866 -77.731214 -0.018188 -2.894541 -5.826908 29.046213 -13.881433 -18.750389 -1.846087 6.415388 3.071485 0.173449 0.000002 -0.000001 -0.000000 3.243822 -14.910330 -3.721740 0.085994 0.804012 -19.502716 -0.000001 -0.000000 -0.000004 1.355677 -2.478978 3.522073 -0.703883 -1.959559 -31.656889 0.000001 -0.000002 -0.000000 0.944624 5.028064 -10.579102 -0.295035 -2.208189 -20.159124 -0.000001 -0.000001 -0.000001 -4.178532 24.272894 -22.447176 -1.332935 -6.871449 -36.682252 0.000002 0.000001 -0.000000 -0.000000 -0.000000 0.000003 0.935771 -4.830910 6.031973 -4.601834 -10.150120 42.221897 0.021414 61.495649 -0.027432 7.484100 -14.518001 -9.378585 -13.635522 1.236142 -3.703172 -1.336388 -0.255934 -2.261622 0.000000 -0.000000 0.000001 -10.701766 5.409911 -0.126397 -0.222685 -5.238624 20.053652 0.000003 -0.000001 0.000003 -4.928201 -6.845005 -3.072385 -0.163939 -2.686229 29.510635 0.000007 0.000001 0.000002 -2.854301 -9.844969 8.892212 0.165460 -1.433692 28.620149 0.000002 -0.000000 0.000004 -1.353100 -19.930569 12.839036 0.455324 1.281189 33.502235 -0.000001 -0.000000 0.000000 0.000004 -0.000001 0.000001 -0.000002 0.000000 -0.000001 -0.000002 0.000000 -0.000001 -0.000002 0.000000 -0.000001 -0.000002 0.000000 -0.000001 -0.000002 0.000000 -0.000001 -0.000001 0.000000 -0.000002 -0.000002 0.000000 -0.000001 -0.000002 0.000000 -0.000001 -0.000001 0.000000 -0.000002 -0.000000 0.000002 -0.000002 -0.000000 0.000002 -0.000002 0.000002 0.000000 -0.000000 
-219.882538 54.878151 90.892159 25.032531 -44.187769 14.865178 -0.000000 0.000003 -0.000001 -31.051208 -6.934422 6.840824 94.043065 -0.661431 -2.863421 18.932581 -6.024875 -2.943954 -0.000000 0.000001 0.000004 -0.000000 0.000001 0.000004 -0.000000 0.000000 -0.000003 -97.379469 9.610448 -4.089626 75.163520 1.398877 2.494465 6.424712 -1.391701 10.860712 -0.000000 0.000002 -0.000000 -0.000000 0.000002 -0.000000 -0.000000 -0.000000 0.000000 11.555525 -3.414387 4.848441 23.280575 -5.268420 9.077100 23.280567 -5.268410 9.077109 -3.428452 -2.385590 1.195301 -38.283863 -19.771004 4.483333 0.000002 -0.000000 -0.000000 0.000002 -0.000000 -0.000000 0.000002 -0.000000 -0.000000 0.546674 -2.614279 6.635282 -38.460126 -19.194862 -12.925061 0.036158 -71.050681 0.013897 -11.210599 1.278331 23.149622 -12.482503 -15.983558 -0.984643 6.250327 3.956385 0.386133 0.000002 -0.000000 -0.000000 3.153515 -14.606344 -7.887529 0.101156 0.835654 -21.622994 -0.000005 -0.000000 -0.000002 1.326974 -2.752207 -0.692549 -0.797401 -2.105191 -33.773499 0.000000 -0.000001 0.000002 0.790741 4.017023 -14.723603 -0.360128 -2.375963 -22.274430 -0.000001 0.000001 -0.000004 -2.675697 22.167459 -27.455439 -1.485852 -7.065130 -38.806854 -0.000003 0.000001 -0.000004 -0.000002 0.000001 0.000001 1.096790 -0.526529 12.938923 -7.786522 -4.145244 44.809200 0.022294 63.930714 -0.025804 5.875051 -15.263567 -4.346507 -13.247761 -1.582225 -4.724298 -1.270594 -0.237131 -2.190133 -0.000002 0.000001 0.000004 -10.692128 5.344630 1.463906 -0.197594 -5.286738 21.637097 -0.000003 0.000000 0.000004 -4.915846 -6.732367 -1.384286 -0.212897 -2.594576 31.087019 0.000002 0.000000 -0.000000 -2.877984 -9.660913 10.556962 0.078055 -1.265273 30.266945 -0.000000 0.000001 -0.000001 -1.421019 -19.648574 14.470627 0.293211 1.533523 35.137925 -0.000002 -0.000003 -0.000000 -0.000002 -0.000001 -0.000001 0.000001 0.000000 -0.000001 0.000001 0.000000 -0.000001 0.000001 0.000000 -0.000001 0.000001 0.000000 -0.000001 0.000001 0.000000 -0.000001 0.000001 0.000000 -0.000001 0.000001 0.000000 -0.000001 0.000001 0.000000 -0.000001 0.000001 0.000000 -0.000001 -0.000000 -0.000001 0.000002 -0.000000 -0.000001 0.000002 -0.000000 0.000003 -0.000001 
-226.159042 55.226234 95.250839 26.307146 -45.908772 16.397630 -0.000001 -0.000002 0.000000 -46.295203 -13.164447 6.831244 104.541701 -0.695785 -2.995958 13.680750 0.073930 2.479359 0.000000 -0.000000 0.000001 0.000000 -0.000000 0.000001 -0.000000 0.000000 -0.000001 -97.461253 7.793761 -3.077955 87.157114 1.142472 2.768057 -3.067044 -1.883330 7.813962 -0.000000 -0.000001 -0.000000 -0.000000 -0.000001 -0.000000 -0.000000 -0.000002 0.000000 12.979367 -1.999784 4.453597 26.013465 -3.041726 7.619325 26.013505 -3.041706 7.619332 -5.330088 -2.515343 -1.215349 -40.906092 -22.676093 5.333814 -0.000000 -0.000000 -0.000001 -0.000000 -0.000000 -0.000001 -0.000000 -0.000000 -0.000001 0.980204 -9.002724 6.909533 -44.968729 -19.510732 -20.658575 0.047993 -59.739170 0.031944 -13.076734 6.124127 18.609361 -10.826826 -12.461567 0.054435 5.840582 4.896468 0.673542 0.000001 -0.000001 -0.000001 3.102883 -14.264078 -13.350414 0.121538 0.874114 -24.252649 0.000000 -0.000001 -0.000004 1.271780 -3.120467 -6.141511 -0.920815 -2.280822 -36.399188 0.000002 -0.000002 -0.000000 0.386748 2.928322 -20.098976 -0.449411 -2.580475 -24.898529 -0.000000 -0.000000 -0.000000 -1.112413 18.947998 -33.815840 -1.685488 -7.297245 -41.443774 -0.000001 0.000001 0.000002 0.000001 0.000001 0.000000 0.273958 5.684674 16.062988 -13.047930 2.124961 44.606255 0.028923 67.426944 -0.031859 7.361734 -10.502116 -0.347318 -12.769675 -4.539474 -5.732414 -1.196990 -0.216819 -2.105845 -0.000002 0.000002 -0.000001 -10.683699 5.276512 3.179910 -0.166025 -5.342054 23.458230 -0.000000 0.000000 0.000002 -4.906291 -6.605649 0.527793 -0.271842 -2.492069 32.899939 -0.000000 0.000001 0.000002 -2.912221 -9.454179 12.440793 -0.031860 -1.068534 32.226557 0.000003 -0.000001 0.000004 -1.503568 -19.356671 16.186647 0.090915 1.826892 37.085444 -0.000000 0.000001 0.000002 0.000001 0.000000 -0.000000 -0.000000 0.000000 0.000002 -0.000000 0.000000 0.000002 -0.000000 0.000000 0.000002 -0.000000 0.000000 0.000002 -0.000000 0.000000 0.000002 -0.000000 0.000000 0.000000 -0.000000 0.000000 0.000002 -0.000000 0.000000 0.000002 -0.000000 0.000000 0.000000 -0.000002 -0.000001 0.000001 -0.000002 -0.000001 0.000001 -0.000001 -0.000002 0.000000 
